<svg width="24" height="25" viewBox="0 0 24 25" fill="none" xmlns="http://www.w3.org/2000/svg">
<path d="M4.75 12.1876C4.75712 12.7908 5.00332 13.3665 5.43455 13.7884C5.86577 14.2102 6.44678 14.4437 7.05 14.4376C7.815 14.4376 9.381 13.3946 10.627 12.3816C10.6557 12.3581 10.6788 12.3284 10.6946 12.2949C10.7105 12.2614 10.7187 12.2247 10.7187 12.1876C10.7187 12.1505 10.7105 12.1138 10.6946 12.0803C10.6788 12.0468 10.6557 12.0171 10.627 11.9936C9.378 10.9816 7.811 9.9376 7.048 9.9376C6.44512 9.932 5.86463 10.1657 5.43384 10.5875C5.00305 11.0093 4.75712 11.5847 4.75 12.1876Z" fill="url(#paint0_linear_14_9671)"/>
<path d="M16.9519 9.93752C16.1869 9.93752 14.6209 10.9805 13.3749 11.9935C13.3463 12.0171 13.3232 12.0467 13.3073 12.0802C13.2914 12.1138 13.2832 12.1504 13.2832 12.1875C13.2832 12.2246 13.2914 12.2613 13.3073 12.2948C13.3232 12.3284 13.3463 12.358 13.3749 12.3815C14.6219 13.3935 16.1889 14.4375 16.9519 14.4375C17.2531 14.4465 17.5529 14.3949 17.8337 14.2859C18.1146 14.1769 18.3707 14.0126 18.5868 13.8028C18.803 13.5929 18.9748 13.3419 19.0922 13.0644C19.2096 12.787 19.27 12.4888 19.27 12.1875C19.27 11.8863 19.2096 11.5881 19.0922 11.3106C18.9748 11.0332 18.803 10.7821 18.5868 10.5723C18.3707 10.3625 18.1146 10.1982 17.8337 10.0891C17.5529 9.9801 17.2531 9.92854 16.9519 9.93752Z" fill="url(#paint1_linear_14_9671)"/>
<path d="M12 1.1875C9.82441 1.1875 7.69767 1.83264 5.88873 3.04133C4.07979 4.25003 2.66989 5.96799 1.83733 7.97798C1.00477 9.98797 0.786929 12.1997 1.21137 14.3335C1.6358 16.4673 2.68345 18.4273 4.22183 19.9657C5.76021 21.5041 7.72022 22.5517 9.85401 22.9761C11.9878 23.4006 14.1995 23.1827 16.2095 22.3502C18.2195 21.5176 19.9375 20.1077 21.1462 18.2988C22.3549 16.4898 23 14.3631 23 12.1875C23 9.27012 21.8411 6.47223 19.7782 4.40933C17.7153 2.34643 14.9174 1.1875 12 1.1875ZM16.952 15.9375C15.472 15.9375 13.302 14.2885 12.161 13.3255C12.1159 13.2876 12.0589 13.2668 12 13.2668C11.9411 13.2668 11.8841 13.2876 11.839 13.3255C10.7 14.2875 8.527 15.9375 7.048 15.9375C6.05344 15.9375 5.09962 15.5424 4.39635 14.8392C3.69309 14.1359 3.29801 13.1821 3.29801 12.1875C3.29801 11.1929 3.69309 10.2391 4.39635 9.53585C5.09962 8.83259 6.05344 8.4375 7.048 8.4375C8.528 8.4375 10.698 10.0865 11.839 11.0495C11.8841 11.0874 11.9411 11.1082 12 11.1082C12.0589 11.1082 12.1159 11.0874 12.161 11.0495C13.3 10.0875 15.473 8.4375 16.952 8.4375C17.9466 8.4375 18.9004 8.83259 19.6037 9.53585C20.3069 10.2391 20.702 11.1929 20.702 12.1875C20.702 13.1821 20.3069 14.1359 19.6037 14.8392C18.9004 15.5424 17.9466 15.9375 16.952 15.9375Z" fill="url(#paint2_linear_14_9671)"/>
<defs>
<linearGradient id="paint0_linear_14_9671" x1="7.73818" y1="8.85124" x2="7.73818" y2="16.4772" gradientUnits="userSpaceOnUse">
<stop offset="0.26574" stop-color="#42368E"/>
<stop offset="0.904321" stop-color="#10102E"/>
</linearGradient>
<linearGradient id="paint1_linear_14_9671" x1="16.2804" y1="8.84983" x2="16.2804" y2="16.4788" gradientUnits="userSpaceOnUse">
<stop offset="0.26574" stop-color="#42368E"/>
<stop offset="0.904321" stop-color="#10102E"/>
</linearGradient>
<linearGradient id="paint2_linear_14_9671" x1="12.0141" y1="-4.12285" x2="12.0141" y2="33.158" gradientUnits="userSpaceOnUse">
<stop offset="0.26574" stop-color="#42368E"/>
<stop offset="0.904321" stop-color="#10102E"/>
</linearGradient>
</defs>
</svg>
