<svg width="24" height="25" viewBox="0 0 24 25" fill="none" xmlns="http://www.w3.org/2000/svg">
<g clip-path="url(#clip0_14_9659)">
<path d="M10 13.6875V17.3875C10.0003 17.5756 10.0536 17.7599 10.1539 17.9191C10.2542 18.0783 10.3974 18.206 10.567 18.2875C10.7378 18.3649 10.9264 18.3946 11.1127 18.3733C11.2991 18.352 11.4761 18.2805 11.625 18.1665L18.125 12.9665C18.242 12.8728 18.3364 12.754 18.4013 12.6189C18.4662 12.4838 18.4998 12.3358 18.4998 12.186C18.4998 12.0361 18.4662 11.8881 18.4013 11.753C18.3364 11.6179 18.242 11.4992 18.125 11.4055L11.625 6.20546C11.4778 6.08764 11.3004 6.01381 11.1131 5.9925C10.9258 5.97118 10.7362 6.00325 10.5664 6.08499C10.3965 6.16674 10.2532 6.29484 10.153 6.45452C10.0528 6.61419 9.99974 6.79894 10 6.98746V10.6875H1.5C1.10218 10.6875 0.720644 10.8455 0.43934 11.1268C0.158035 11.4081 0 11.7896 0 12.1875C0 12.5853 0.158035 12.9668 0.43934 13.2481C0.720644 13.5294 1.10218 13.6875 1.5 13.6875H10Z" fill="url(#paint0_linear_14_9659)"/>
<path d="M11.9999 0.1875C9.68491 0.190098 7.41989 0.860856 5.47681 2.11923C3.53372 3.37761 1.99516 5.17011 1.04588 7.2815C0.937275 7.52364 0.929308 7.79901 1.02373 8.04703C1.11816 8.29504 1.30724 8.49539 1.54938 8.604C1.79152 8.71261 2.06689 8.72057 2.31491 8.62615C2.56293 8.53172 2.76328 8.34264 2.87188 8.1005C3.80708 6.01352 5.42937 4.31015 7.46828 3.27434C9.5072 2.23853 11.8395 1.93287 14.0765 2.40832C16.3135 2.88378 18.3199 4.11161 19.7613 5.88713C21.2027 7.66265 21.9919 9.87858 21.9975 12.1655C22.0031 14.4524 21.2246 16.6722 19.7919 18.4547C18.3591 20.2372 16.3587 21.4748 14.1241 21.9611C11.8894 22.4474 9.55563 22.1531 7.5117 21.1272C5.46777 20.1014 3.83723 18.4059 2.89188 16.3235C2.83945 16.201 2.76309 16.0903 2.66727 15.9977C2.57145 15.9052 2.4581 15.8327 2.33389 15.7846C2.20968 15.7365 2.0771 15.7137 1.94394 15.7175C1.81079 15.7213 1.67973 15.7517 1.55848 15.8068C1.43723 15.862 1.32822 15.9408 1.23785 16.0387C1.14749 16.1366 1.07759 16.2515 1.03226 16.3768C0.986931 16.502 0.967086 16.6351 0.97389 16.7681C0.980694 16.9012 1.01401 17.0315 1.07188 17.1515C1.96364 19.1141 3.36763 20.8003 5.1363 22.0328C6.90496 23.2653 8.97298 23.9986 11.123 24.1556C13.273 24.3126 15.4256 23.8876 17.3546 22.9251C19.2835 21.9627 20.9176 20.4984 22.0851 18.6861C23.2525 16.8738 23.9102 14.7805 23.989 12.6262C24.0678 10.4719 23.5648 8.33618 22.533 6.44345C21.5011 4.55072 19.9784 2.97092 18.1249 1.87008C16.2714 0.769235 14.1556 0.188014 11.9999 0.1875V0.1875Z" fill="url(#paint1_linear_14_9659)"/>
</g>
<defs>
<linearGradient id="paint0_linear_14_9659" x1="9.26173" y1="2.99445" x2="9.26173" y2="23.997" gradientUnits="userSpaceOnUse">
<stop offset="0.26574" stop-color="#42368E"/>
<stop offset="0.904321" stop-color="#10102E"/>
</linearGradient>
<linearGradient id="paint1_linear_14_9659" x1="12.4923" y1="-5.6056" x2="12.4923" y2="35.0644" gradientUnits="userSpaceOnUse">
<stop offset="0.26574" stop-color="#42368E"/>
<stop offset="0.904321" stop-color="#10102E"/>
</linearGradient>
<clipPath id="clip0_14_9659">
<rect width="24" height="24" fill="white" transform="translate(0 0.1875)"/>
</clipPath>
</defs>
</svg>
