<svg width="24" height="25" viewBox="0 0 24 25" fill="none" xmlns="http://www.w3.org/2000/svg">
<g clip-path="url(#clip0_14_9665)">
<path d="M10.4579 18.5614L7.72089 21.2974C7.19006 21.8047 6.48411 22.0877 5.74989 22.0877C5.01568 22.0877 4.30972 21.8047 3.77889 21.2974L2.88689 20.4064C2.36435 19.8838 2.0708 19.175 2.0708 18.4359C2.0708 17.6969 2.36435 16.9881 2.88689 16.4654L8.68689 10.6654C9.20984 10.1431 9.91875 9.84968 10.6579 9.84968C11.397 9.84968 12.1059 10.1431 12.6289 10.6654L13.5219 11.5574C13.7099 11.7455 13.965 11.8511 14.2309 11.8511C14.4968 11.8511 14.7519 11.7455 14.9399 11.5574C15.1279 11.3694 15.2336 11.1144 15.2336 10.8484C15.2336 10.5825 15.1279 10.3275 14.9399 10.1394L14.0469 9.24744C13.1486 8.35033 11.9309 7.84644 10.6614 7.84644C9.39184 7.84644 8.17419 8.35033 7.27589 9.24744L1.47589 15.0474C1.03135 15.492 0.678724 16.0197 0.438141 16.6005C0.197557 17.1813 0.0737305 17.8038 0.0737305 18.4324C0.0737305 19.0611 0.197557 19.6836 0.438141 20.2644C0.678724 20.8452 1.03135 21.3729 1.47589 21.8174L2.36789 22.7084C2.81229 23.1534 3.34004 23.5063 3.92095 23.7472C4.50186 23.988 5.12454 24.1119 5.75339 24.1119C6.38224 24.1119 7.00492 23.988 7.58583 23.7472C8.16674 23.5063 8.69449 23.1534 9.13889 22.7084L11.8749 19.9734C11.9678 19.8806 12.0415 19.7704 12.0918 19.649C12.1421 19.5277 12.168 19.3976 12.1681 19.2663C12.1681 19.1349 12.1423 19.0049 12.0921 18.8835C12.0419 18.7621 11.9682 18.6518 11.8754 18.5589C11.7825 18.466 11.6723 18.3923 11.551 18.342C11.4296 18.2917 11.2996 18.2658 11.1682 18.2657C11.0369 18.2657 10.9068 18.2915 10.7855 18.3417C10.6641 18.392 10.5538 18.4656 10.4609 18.5584L10.4579 18.5614Z" fill="url(#paint0_linear_14_9665)"/>
<path d="M22.5259 2.55052L21.6339 1.65852C20.7345 0.763905 19.5175 0.261719 18.2489 0.261719C16.9803 0.261719 15.7633 0.763905 14.8639 1.65852L11.9589 4.55852C11.7767 4.74712 11.6759 4.99972 11.6782 5.26192C11.6805 5.52412 11.7857 5.77493 11.9711 5.96034C12.1565 6.14574 12.4073 6.25091 12.6695 6.25319C12.9317 6.25547 13.1843 6.15468 13.3729 5.97252L16.2729 3.07252C16.7959 2.55071 17.5046 2.25767 18.2434 2.25767C18.9822 2.25767 19.6909 2.55071 20.2139 3.07252L21.1069 3.96552C21.3659 4.22426 21.5714 4.53151 21.7115 4.86971C21.8517 5.20791 21.9239 5.57042 21.9239 5.93652C21.9239 6.30262 21.8517 6.66513 21.7115 7.00333C21.5714 7.34153 21.3659 7.64878 21.1069 7.90752L15.3069 13.7075C15.0487 13.9673 14.7416 14.1732 14.4032 14.3135C14.0649 14.4537 13.7021 14.5255 13.3359 14.5245C12.97 14.5255 12.6076 14.4539 12.2696 14.3138C11.9316 14.1737 11.6248 13.968 11.3669 13.7085C11.2753 13.6107 11.165 13.5323 11.0425 13.478C10.92 13.4236 10.7879 13.3945 10.6539 13.3922C10.5199 13.3899 10.3869 13.4146 10.2626 13.4648C10.1384 13.5149 10.0255 13.5895 9.93061 13.6842C9.83576 13.7788 9.7609 13.8916 9.71047 14.0157C9.66005 14.1399 9.63509 14.2729 9.63707 14.4069C9.63906 14.5408 9.66795 14.6731 9.72203 14.7956C9.77611 14.9182 9.85428 15.0287 9.95189 15.1205C10.3953 15.5661 10.9227 15.9194 11.5036 16.1597C12.0845 16.4 12.7073 16.5226 13.3359 16.5205C13.9647 16.5227 14.5876 16.4001 15.1687 16.1598C15.7498 15.9195 16.2773 15.5662 16.7209 15.1205L22.5209 9.32052C22.9657 8.87605 23.3186 8.34828 23.5593 7.76738C23.8 7.18648 23.924 6.56383 23.924 5.93502C23.924 5.30621 23.8 4.68356 23.5593 4.10265C23.3186 3.52175 22.9657 2.99399 22.5209 2.54952L22.5259 2.55052Z" fill="url(#paint1_linear_14_9665)"/>
</g>
<defs>
<linearGradient id="paint0_linear_14_9665" x1="7.66333" y1="3.92028" x2="7.66333" y2="31.4835" gradientUnits="userSpaceOnUse">
<stop offset="0.26574" stop-color="#42368E"/>
<stop offset="0.904321" stop-color="#10102E"/>
</linearGradient>
<linearGradient id="paint1_linear_14_9665" x1="16.7896" y1="-3.66283" x2="16.7896" y2="23.8891" gradientUnits="userSpaceOnUse">
<stop offset="0.26574" stop-color="#42368E"/>
<stop offset="0.904321" stop-color="#10102E"/>
</linearGradient>
<clipPath id="clip0_14_9665">
<rect width="24" height="24" fill="white" transform="translate(0 0.1875)"/>
</clipPath>
</defs>
</svg>
