<svg width="33" height="33" viewBox="0 0 33 33" fill="none" xmlns="http://www.w3.org/2000/svg">
<g clip-path="url(#clip0_90_5829)">
<path d="M29.9267 12.3431L17.0734 18.4764C16.8946 18.5626 16.6986 18.6074 16.5001 18.6074C16.3015 18.6074 16.1056 18.5626 15.9267 18.4764L3.07473 12.3431C2.91563 12.2531 2.73973 12.1968 2.55796 12.1777C2.37619 12.1586 2.19243 12.1771 2.0181 12.232C1.84376 12.2869 1.68258 12.377 1.54455 12.4968C1.40652 12.6166 1.29459 12.7635 1.21573 12.9284C1.13686 13.0933 1.09273 13.2726 1.08609 13.4553C1.07944 13.6379 1.11042 13.82 1.1771 13.9902C1.24377 14.1603 1.34472 14.315 1.47368 14.4445C1.60264 14.574 1.75685 14.6756 1.92673 14.7431L14.7774 20.8764C15.3154 21.1331 15.904 21.2663 16.5001 21.2663C17.0962 21.2663 17.6847 21.1331 18.2227 20.8764L31.0747 14.7431C31.3688 14.5768 31.5889 14.3051 31.6903 13.9828C31.7918 13.6606 31.7671 13.3118 31.6213 13.007C31.4756 12.7023 31.2195 12.4642 30.9049 12.3409C30.5904 12.2177 30.2408 12.2184 29.9267 12.3431Z" fill="#0068F5"/>
<path d="M29.9266 17.7324L17.0733 23.8658C16.8942 23.9511 16.6984 23.9953 16.5 23.9953C16.3016 23.9953 16.1057 23.9511 15.9267 23.8658L3.07465 17.7324C2.76062 17.6078 2.411 17.6071 2.09643 17.7303C1.78187 17.8536 1.52582 18.0916 1.38003 18.3964C1.23425 18.7012 1.2096 19.0499 1.31107 19.3722C1.41253 19.6945 1.63255 19.9662 1.92665 20.1324L14.7773 26.2658C15.3153 26.5225 15.9039 26.6557 16.5 26.6557C17.0961 26.6557 17.6847 26.5225 18.2227 26.2658L31.0746 20.1324C31.3688 19.9662 31.5888 19.6945 31.6902 19.3722C31.7917 19.0499 31.7671 18.7012 31.6213 18.3964C31.4755 18.0916 31.2194 17.8536 30.9049 17.7303C30.5903 17.6071 30.2407 17.6078 29.9266 17.7324Z" fill="#0068F5"/>
<path d="M29.9266 22.8854L17.0732 29.0188C16.8944 29.105 16.6984 29.1498 16.4999 29.1498C16.3014 29.1498 16.1054 29.105 15.9266 29.0188L3.07457 22.8854C2.75525 22.7332 2.38854 22.7141 2.0551 22.8322C1.72166 22.9504 1.44881 23.1961 1.29657 23.5154C1.14434 23.8348 1.12519 24.2015 1.24334 24.5349C1.36149 24.8684 1.60725 25.1412 1.92657 25.2934L14.7772 31.4268C15.3149 31.6848 15.9036 31.8188 16.4999 31.8188C17.0962 31.8188 17.685 31.6848 18.2226 31.4268L31.0746 25.2934C31.3939 25.1412 31.6397 24.8684 31.7578 24.5349C31.876 24.2015 31.8568 23.8348 31.7046 23.5154C31.5523 23.1961 31.2795 22.9504 30.9461 22.8322C30.6126 22.7141 30.2459 22.7332 29.9266 22.8854Z" fill="#0068F5"/>
<path d="M2.04136 10.0761L14.9 15.6695C15.4034 15.8876 15.9461 16.0001 16.4947 16.0001C17.0433 16.0001 17.586 15.8876 18.0894 15.6695L30.9494 10.0788C31.307 9.92359 31.6114 9.66724 31.8253 9.34129C32.0392 9.01534 32.1531 8.63398 32.1531 8.24413C32.1531 7.85428 32.0392 7.47293 31.8253 7.14697C31.6114 6.82102 31.307 6.56467 30.9494 6.40946L18.1 0.817464C17.5953 0.597602 17.0506 0.484131 16.5 0.484131C15.9495 0.484131 15.4048 0.597602 14.9 0.817464L2.04402 6.40813C1.68679 6.56352 1.38271 6.81986 1.16914 7.14567C0.955569 7.47148 0.841797 7.85256 0.841797 8.24213C0.841797 8.6317 0.955569 9.01278 1.16914 9.33859C1.38271 9.6644 1.68679 9.92074 2.04402 10.0761H2.04136Z" fill="#0068F5"/>
</g>
<defs>
<clipPath id="clip0_90_5829">
<rect width="32" height="32" fill="white" transform="translate(0.5 0.150879)"/>
</clipPath>
</defs>
</svg>
